# xmcd
#
# Track frame offsets:
#	150
#	18158
#	36933
#	56244
#	70595
#	88577
#	100518
#	115900
#	126588
#	144997
#
# Disc length: 2110 seconds
#
# Revision: 1
# Processed by: cddbd v1.5.2PL0 Copyright (c) Steve Scherf et al.
# Submitted via: audiograbber 1.83.01
#
DISCID=83083c0a
DTITLE=Tony Cannon And Southbound - Up To My Neck In Red
DYEAR=2005
DGENRE=Country Rock
TTITLE0=Up To My Neck In Red
TTITLE1=No One But Me (Charity´s Song)
TTITLE2=Spinning My Wheel
TTITLE3=Don´t Know What To Do
TTITLE4=Take My Hand
TTITLE5=When The Rubber Hits The Road
TTITLE6=Big Trouble With A Little Woman
TTITLE7=Oh Diddley
TTITLE8=Ecstacy
TTITLE9=Rusted And Rugged
EXTD=
EXTT0=
EXTT1=
EXTT2=
EXTT3=
EXTT4=
EXTT5=
EXTT6=
EXTT7=
EXTT8=
EXTT9=
PLAYORDER=
